STARTFONT 2.1
FONT -classic-rockboxpropfont-Medium-R-Normal--8-80-75-75-P-50-FontSpecific-0
SIZE 8 75 75
FONTBOUNDINGBOX 7 8 1 0
STARTPROPERTIES 25
FONT_NAME "rockbox-prop-fontmedium"
FONT_ASCENT 8
FONT_DESCENT 0
QUAD_WIDTH 8
X_HEIGHT 4
CAP_HEIGHT 6
FONTNAME_REGISTRY ""
FAMILY_NAME "rockboxpropfont"
FOUNDRY "classic"
WEIGHT_NAME "Medium"
SETWIDTH_NAME "Normal"
SLANT "R"
ADD_STYLE_NAME ""
PIXEL_SIZE 8
POINT_SIZE 80
RESOLUTION_X 75
RESOLUTION_Y 75
RESOLUTION 75
SPACING "P"
AVERAGE_WIDTH 50
CHARSET_REGISTRY "FontSpecific"
CHARSET_ENCODING "0"
CHARSET_COLLECTIONS "ASCII ISOLatin1Encoding FontSpecific"
FULL_NAME "rockbox-prop-font medium"
COPYRIGHT "by Uwe Freese, mail@uwe-freese.de 09/2002. V1.1"
COMMENT 
COMMENT This font was originally converted from the old RockBox
COMMENT proportional font that was saved in arrays of columns.
COMMENT After conversion, many characters have changed for better
COMMENT readability, some characters were added and the digits
COMMENT changed to have the same width.
COMMENT 
COMMENT If someone finds errors (especially in the first font definition
COMMENT lines), please let me know it.
COMMENT 
COMMENT Permission to use, copy, modify, and distribute this 
COMMENT software for any purpose and without fee is hereby granted, 
COMMENT provided that the above copyright notice appear in all 
COMMENT copies and that both that copyright notice and this 
COMMENT permission notice appear in supporting documentation, and 
COMMENT that the name of Uwe Freese not be used in advertising or 
COMMENT publicity pertaining to distribution of the software without 
COMMENT specific, written prior permission. Uwe Freese makes no 
COMMENT representations about the suitability of this software for 
COMMENT any purpose. It is provided "as is" without express or 
COMMENT implied warranty.
COMMENT 
ENDPROPERTIES
CHARS 190
STARTCHAR space
ENCODING 32
SWIDTH 720 0
DWIDTH 5 0
BBX 1 1 4 0
BITMAP
00
ENDCHAR
STARTCHAR exclamation
ENCODING 33
SWIDTH 720 0
DWIDTH 2 0
BBX 1 7 1 0
BITMAP
80
80
80
80
80
00
80
ENDCHAR
STARTCHAR double
ENCODING 34
SWIDTH 720 0
DWIDTH 4 0
BBX 3 3 1 4
BITMAP
A0
A0
A0
ENDCHAR
STARTCHAR hash
ENCODING 35
SWIDTH 720 0
DWIDTH 6 0
BBX 5 5 1 1
BITMAP
50
F8
50
F8
50
ENDCHAR
STARTCHAR dollar
ENCODING 36
SWIDTH 720 0
DWIDTH 6 0
BBX 5 7 1 0
BITMAP
20
78
A0
70
28
F0
20
ENDCHAR
STARTCHAR percent
ENCODING 37
SWIDTH 500 0
DWIDTH 4 0
BBX 3 7 1 0
BITMAP
A0
20
40
40
40
80
A0
ENDCHAR
STARTCHAR ampersand
ENCODING 38
SWIDTH 750 0
DWIDTH 6 0
BBX 5 7 1 0
BITMAP
60
90
A0
40
A8
90
68
ENDCHAR
STARTCHAR apostrophe
ENCODING 39
SWIDTH 720 0
DWIDTH 2 0
BBX 1 3 1 4
BITMAP
80
80
80
ENDCHAR
STARTCHAR open
ENCODING 40
SWIDTH 720 0
DWIDTH 3 0
BBX 2 7 1 0
BITMAP
40
80
80
80
80
80
40
ENDCHAR
STARTCHAR close
ENCODING 41
SWIDTH 720 0
DWIDTH 3 0
BBX 2 7 1 0
BITMAP
80
40
40
40
40
40
80
ENDCHAR
STARTCHAR asterisk
ENCODING 42
SWIDTH 720 0
DWIDTH 6 0
BBX 5 5 1 1
BITMAP
50
20
F8
20
50
ENDCHAR
STARTCHAR plus
ENCODING 43
SWIDTH 720 0
DWIDTH 6 0
BBX 5 5 1 1
BITMAP
20
20
F8
20
20
ENDCHAR
STARTCHAR comma
ENCODING 44
SWIDTH 720 0
DWIDTH 3 0
BBX 2 3 1 0
BITMAP
40
40
80
ENDCHAR
STARTCHAR minus
ENCODING 45
SWIDTH 720 0
DWIDTH 6 0
BBX 5 1 1 3
BITMAP
F8
ENDCHAR
STARTCHAR full
ENCODING 46
SWIDTH 720 0
DWIDTH 2 0
BBX 1 1 1 0
BITMAP
80
ENDCHAR
STARTCHAR slash
ENCODING 47
SWIDTH 500 0
DWIDTH 4 0
BBX 3 7 1 0
BITMAP
20
20
40
40
40
80
80
ENDCHAR
STARTCHAR digit
ENCODING 48
SWIDTH 720 0
DWIDTH 5 0
BBX 4 7 1 0
BITMAP
60
90
B0
D0
90
90
60
ENDCHAR
STARTCHAR digit
ENCODING 49
SWIDTH 720 0
DWIDTH 5 0
BBX 3 7 1 0
BITMAP
20
60
A0
20
20
20
20
ENDCHAR
STARTCHAR digit
ENCODING 50
SWIDTH 720 0
DWIDTH 5 0
BBX 4 7 1 0
BITMAP
60
90
10
20
40
80
F0
ENDCHAR
STARTCHAR digit
ENCODING 51
SWIDTH 720 0
DWIDTH 5 0
BBX 4 7 1 0
BITMAP
60
90
10
60
10
90
60
ENDCHAR
STARTCHAR digit
ENCODING 52
SWIDTH 720 0
DWIDTH 5 0
BBX 4 7 1 0
BITMAP
80
A0
A0
F0
20
20
20
ENDCHAR
STARTCHAR digit
ENCODING 53
SWIDTH 720 0
DWIDTH 5 0
BBX 4 7 1 0
BITMAP
F0
80
80
E0
10
90
60
ENDCHAR
STARTCHAR digit
ENCODING 54
SWIDTH 720 0
DWIDTH 5 0
BBX 4 7 1 0
BITMAP
20
40
80
E0
90
90
60
ENDCHAR
STARTCHAR digit
ENCODING 55
SWIDTH 720 0
DWIDTH 5 0
BBX 4 7 1 0
BITMAP
F0
10
10
20
40
40
40
ENDCHAR
STARTCHAR digit
ENCODING 56
SWIDTH 720 0
DWIDTH 5 0
BBX 4 7 1 0
BITMAP
60
90
90
60
90
90
60
ENDCHAR
STARTCHAR digit
ENCODING 57
SWIDTH 720 0
DWIDTH 5 0
BBX 4 7 1 0
BITMAP
60
90
90
70
10
20
40
ENDCHAR
STARTCHAR colon
ENCODING 58
SWIDTH 720 0
DWIDTH 2 0
BBX 1 4 1 1
BITMAP
80
00
00
80
ENDCHAR
STARTCHAR semicolon
ENCODING 59
SWIDTH 720 0
DWIDTH 3 0
BBX 2 4 1 0
BITMAP
40
00
40
80
ENDCHAR
STARTCHAR less-than
ENCODING 60
SWIDTH 720 0
DWIDTH 4 0
BBX 3 5 1 1
BITMAP
20
40
80
40
20
ENDCHAR
STARTCHAR equal
ENCODING 61
SWIDTH 720 0
DWIDTH 5 0
BBX 4 3 1 2
BITMAP
F0
00
F0
ENDCHAR
STARTCHAR greater-than
ENCODING 62
SWIDTH 720 0
DWIDTH 4 0
BBX 3 5 1 1
BITMAP
80
40
20
40
80
ENDCHAR
STARTCHAR question
ENCODING 63
SWIDTH 720 0
DWIDTH 5 0
BBX 4 7 1 0
BITMAP
60
90
10
20
40
00
40
ENDCHAR
STARTCHAR commercial
ENCODING 64
SWIDTH 720 0
DWIDTH 6 0
BBX 5 6 1 1
BITMAP
70
88
B8
B0
80
70
ENDCHAR
STARTCHAR A
ENCODING 65
SWIDTH 720 0
DWIDTH 5 0
BBX 4 7 1 0
BITMAP
60
90
90
F0
90
90
90
ENDCHAR
STARTCHAR B
ENCODING 66
SWIDTH 720 0
DWIDTH 5 0
BBX 4 7 1 0
BITMAP
E0
90
90
E0
90
90
E0
ENDCHAR
STARTCHAR C
ENCODING 67
SWIDTH 720 0
DWIDTH 5 0
BBX 4 7 1 0
BITMAP
60
90
80
80
80
90
60
ENDCHAR
STARTCHAR D
ENCODING 68
SWIDTH 720 0
DWIDTH 5 0
BBX 4 7 1 0
BITMAP
E0
90
90
90
90
90
E0
ENDCHAR
STARTCHAR E
ENCODING 69
SWIDTH 720 0
DWIDTH 5 0
BBX 4 7 1 0
BITMAP
F0
80
80
E0
80
80
F0
ENDCHAR
STARTCHAR F
ENCODING 70
SWIDTH 720 0
DWIDTH 5 0
BBX 4 7 1 0
BITMAP
F0
80
80
E0
80
80
80
ENDCHAR
STARTCHAR G
ENCODING 71
SWIDTH 720 0
DWIDTH 5 0
BBX 4 7 1 0
BITMAP
70
80
80
B0
90
90
70
ENDCHAR
STARTCHAR H
ENCODING 72
SWIDTH 720 0
DWIDTH 5 0
BBX 4 7 1 0
BITMAP
90
90
90
F0
90
90
90
ENDCHAR
STARTCHAR I
ENCODING 73
SWIDTH 720 0
DWIDTH 4 0
BBX 3 7 1 0
BITMAP
E0
40
40
40
40
40
E0
ENDCHAR
STARTCHAR J
ENCODING 74
SWIDTH 720 0
DWIDTH 5 0
BBX 4 7 1 0
BITMAP
70
10
10
10
10
90
60
ENDCHAR
STARTCHAR K
ENCODING 75
SWIDTH 720 0
DWIDTH 5 0
BBX 4 7 1 0
BITMAP
90
90
A0
C0
A0
90
90
ENDCHAR
STARTCHAR L
ENCODING 76
SWIDTH 720 0
DWIDTH 5 0
BBX 4 7 1 0
BITMAP
80
80
80
80
80
80
F0
ENDCHAR
STARTCHAR M
ENCODING 77
SWIDTH 720 0
DWIDTH 6 0
BBX 5 7 1 0
BITMAP
88
D8
A8
A8
88
88
88
ENDCHAR
STARTCHAR N
ENCODING 78
SWIDTH 720 0
DWIDTH 5 0
BBX 4 7 1 0
BITMAP
90
D0
D0
B0
B0
90
90
ENDCHAR
STARTCHAR O
ENCODING 79
SWIDTH 720 0
DWIDTH 5 0
BBX 4 7 1 0
BITMAP
60
90
90
90
90
90
60
ENDCHAR
STARTCHAR P
ENCODING 80
SWIDTH 720 0
DWIDTH 5 0
BBX 4 7 1 0
BITMAP
E0
90
90
E0
80
80
80
ENDCHAR
STARTCHAR Q
ENCODING 81
SWIDTH 720 0
DWIDTH 6 0
BBX 5 7 1 0
BITMAP
60
90
90
90
B0
90
68
ENDCHAR
STARTCHAR R
ENCODING 82
SWIDTH 720 0
DWIDTH 5 0
BBX 4 7 1 0
BITMAP
E0
90
90
E0
A0
90
90
ENDCHAR
STARTCHAR S
ENCODING 83
SWIDTH 720 0
DWIDTH 5 0
BBX 4 7 1 0
BITMAP
70
80
80
60
10
10
E0
ENDCHAR
STARTCHAR T
ENCODING 84
SWIDTH 720 0
DWIDTH 6 0
BBX 5 7 1 0
BITMAP
F8
20
20
20
20
20
20
ENDCHAR
STARTCHAR U
ENCODING 85
SWIDTH 720 0
DWIDTH 5 0
BBX 4 7 1 0
BITMAP
90
90
90
90
90
90
60
ENDCHAR
STARTCHAR V
ENCODING 86
SWIDTH 720 0
DWIDTH 6 0
BBX 5 7 1 0
BITMAP
88
88
88
50
50
20
20
ENDCHAR
STARTCHAR W
ENCODING 87
SWIDTH 720 0
DWIDTH 6 0
BBX 5 7 1 0
BITMAP
88
88
88
A8
A8
A8
50
ENDCHAR
STARTCHAR X
ENCODING 88
SWIDTH 720 0
DWIDTH 6 0
BBX 5 7 1 0
BITMAP
88
88
50
20
50
88
88
ENDCHAR
STARTCHAR Y
ENCODING 89
SWIDTH 720 0
DWIDTH 6 0
BBX 5 7 1 0
BITMAP
88
88
50
20
20
20
20
ENDCHAR
STARTCHAR Z
ENCODING 90
SWIDTH 720 0
DWIDTH 6 0
BBX 5 7 1 0
BITMAP
F8
08
10
20
40
80
F8
ENDCHAR
STARTCHAR left
ENCODING 91
SWIDTH 720 0
DWIDTH 3 0
BBX 2 7 1 0
BITMAP
C0
80
80
80
80
80
C0
ENDCHAR
STARTCHAR backslash
ENCODING 92
SWIDTH 500 0
DWIDTH 4 0
BBX 3 7 1 0
BITMAP
80
80
40
40
40
20
20
ENDCHAR
STARTCHAR right
ENCODING 93
SWIDTH 720 0
DWIDTH 3 0
BBX 2 7 1 0
BITMAP
C0
40
40
40
40
40
C0
ENDCHAR
STARTCHAR circumflex
ENCODING 94
SWIDTH 720 0
DWIDTH 6 0
BBX 5 3 1 4
BITMAP
20
50
88
ENDCHAR
STARTCHAR underscore
ENCODING 95
SWIDTH 720 0
DWIDTH 6 0
BBX 5 1 1 0
BITMAP
F8
ENDCHAR
STARTCHAR grave
ENCODING 96
SWIDTH 720 0
DWIDTH 3 0
BBX 2 3 1 4
BITMAP
80
80
40
ENDCHAR
STARTCHAR a
ENCODING 97
SWIDTH 720 0
DWIDTH 5 0
BBX 4 5 1 0
BITMAP
60
10
70
90
70
ENDCHAR
STARTCHAR b
ENCODING 98
SWIDTH 720 0
DWIDTH 5 0
BBX 4 7 1 0
BITMAP
80
80
E0
90
90
90
E0
ENDCHAR
STARTCHAR c
ENCODING 99
SWIDTH 720 0
DWIDTH 5 0
BBX 4 5 1 0
BITMAP
70
80
80
80
70
ENDCHAR
STARTCHAR d
ENCODING 100
SWIDTH 720 0
DWIDTH 5 0
BBX 4 7 1 0
BITMAP
10
10
70
90
90
90
70
ENDCHAR
STARTCHAR e
ENCODING 101
SWIDTH 720 0
DWIDTH 5 0
BBX 4 5 1 0
BITMAP
60
90
F0
80
70
ENDCHAR
STARTCHAR f
ENCODING 102
SWIDTH 720 0
DWIDTH 5 0
BBX 4 7 1 0
BITMAP
30
40
40
E0
40
40
40
ENDCHAR
STARTCHAR g
ENCODING 103
SWIDTH 720 0
DWIDTH 5 0
BBX 4 5 1 0
BITMAP
70
90
70
10
E0
ENDCHAR
STARTCHAR h
ENCODING 104
SWIDTH 720 0
DWIDTH 5 0
BBX 4 7 1 0
BITMAP
80
80
E0
90
90
90
90
ENDCHAR
STARTCHAR i
ENCODING 105
SWIDTH 720 0
DWIDTH 2 0
BBX 1 7 1 0
BITMAP
80
00
80
80
80
80
80
ENDCHAR
STARTCHAR j
ENCODING 106
SWIDTH 720 0
DWIDTH 5 0
BBX 4 7 1 0
BITMAP
10
00
30
10
10
90
60
ENDCHAR
STARTCHAR k
ENCODING 107
SWIDTH 720 0
DWIDTH 5 0
BBX 4 7 1 0
BITMAP
80
80
90
A0
C0
A0
90
ENDCHAR
STARTCHAR l
ENCODING 108
SWIDTH 720 0
DWIDTH 2 0
BBX 1 7 1 0
BITMAP
80
80
80
80
80
80
80
ENDCHAR
STARTCHAR m
ENCODING 109
SWIDTH 720 0
DWIDTH 6 0
BBX 5 5 1 0
BITMAP
50
A8
A8
88
88
ENDCHAR
STARTCHAR n
ENCODING 110
SWIDTH 720 0
DWIDTH 5 0
BBX 4 5 1 0
BITMAP
A0
D0
90
90
90
ENDCHAR
STARTCHAR o
ENCODING 111
SWIDTH 720 0
DWIDTH 5 0
BBX 4 5 1 0
BITMAP
60
90
90
90
60
ENDCHAR
STARTCHAR p
ENCODING 112
SWIDTH 720 0
DWIDTH 5 0
BBX 4 5 1 0
BITMAP
E0
90
E0
80
80
ENDCHAR
STARTCHAR q
ENCODING 113
SWIDTH 720 0
DWIDTH 5 0
BBX 4 5 1 0
BITMAP
70
90
70
10
10
ENDCHAR
STARTCHAR r
ENCODING 114
SWIDTH 720 0
DWIDTH 4 0
BBX 3 5 1 0
BITMAP
A0
C0
80
80
80
ENDCHAR
STARTCHAR s
ENCODING 115
SWIDTH 720 0
DWIDTH 5 0
BBX 4 5 1 0
BITMAP
70
80
60
10
E0
ENDCHAR
STARTCHAR t
ENCODING 116
SWIDTH 720 0
DWIDTH 4 0
BBX 3 7 1 0
BITMAP
40
40
E0
40
40
40
20
ENDCHAR
STARTCHAR u
ENCODING 117
SWIDTH 720 0
DWIDTH 5 0
BBX 4 5 1 0
BITMAP
90
90
90
90
70
ENDCHAR
STARTCHAR v
ENCODING 118
SWIDTH 720 0
DWIDTH 6 0
BBX 5 5 1 0
BITMAP
88
88
50
50
20
ENDCHAR
STARTCHAR w
ENCODING 119
SWIDTH 720 0
DWIDTH 6 0
BBX 5 5 1 0
BITMAP
88
88
A8
A8
50
ENDCHAR
STARTCHAR x
ENCODING 120
SWIDTH 720 0
DWIDTH 4 0
BBX 3 5 1 0
BITMAP
A0
A0
40
A0
A0
ENDCHAR
STARTCHAR y
ENCODING 121
SWIDTH 720 0
DWIDTH 5 0
BBX 4 5 1 0
BITMAP
90
90
70
10
60
ENDCHAR
STARTCHAR z
ENCODING 122
SWIDTH 720 0
DWIDTH 4 0
BBX 3 5 1 0
BITMAP
E0
20
40
80
E0
ENDCHAR
STARTCHAR left
ENCODING 123
SWIDTH 720 0
DWIDTH 4 0
BBX 3 7 1 0
BITMAP
20
40
40
80
40
40
20
ENDCHAR
STARTCHAR pipe
ENCODING 124
SWIDTH 720 0
DWIDTH 2 0
BBX 1 7 1 0
BITMAP
80
80
80
00
80
80
80
ENDCHAR
STARTCHAR right
ENCODING 125
SWIDTH 720 0
DWIDTH 4 0
BBX 3 7 1 0
BITMAP
80
40
40
20
40
40
80
ENDCHAR
STARTCHAR tilde
ENCODING 126
SWIDTH 720 0
DWIDTH 6 0
BBX 5 2 1 5
BITMAP
68
B0
ENDCHAR
STARTCHAR inverted
ENCODING 161
SWIDTH 720 0
DWIDTH 2 0
BBX 1 7 1 0
BITMAP
80
00
80
80
80
80
80
ENDCHAR
STARTCHAR cent
ENCODING 162
SWIDTH 720 0
DWIDTH 6 0
BBX 5 6 1 0
BITMAP
20
70
A8
A0
A8
70
ENDCHAR
STARTCHAR pound
ENCODING 163
SWIDTH 720 0
DWIDTH 6 0
BBX 5 7 1 0
BITMAP
30
48
40
F0
40
40
F8
ENDCHAR
STARTCHAR euro
ENCODING 164
SWIDTH 720 0
DWIDTH 5 0
BBX 4 7 1 0
BITMAP
30
40
E0
40
E0
40
30
ENDCHAR
STARTCHAR yen
ENCODING 165
SWIDTH 720 0
DWIDTH 6 0
BBX 5 7 1 0
BITMAP
88
88
50
F8
20
F8
20
ENDCHAR
STARTCHAR broken
ENCODING 166
SWIDTH 720 0
DWIDTH 2 0
BBX 1 7 1 0
BITMAP
80
80
80
00
80
80
80
ENDCHAR
STARTCHAR section
ENCODING 167
SWIDTH 720 0
DWIDTH 5 0
BBX 4 7 1 0
BITMAP
70
80
60
90
60
10
E0
ENDCHAR
STARTCHAR dieresis
ENCODING 168
SWIDTH 720 0
DWIDTH 5 0
BBX 4 1 1 6
BITMAP
90
ENDCHAR
STARTCHAR copyright
ENCODING 169
SWIDTH 720 0
DWIDTH 8 0
BBX 7 7 1 0
BITMAP
38
44
9A
A2
9A
44
38
ENDCHAR
STARTCHAR feminine
ENCODING 170
SWIDTH 720 0
DWIDTH 7 0
BBX 5 5 2 2
BITMAP
F0
10
70
90
F8
ENDCHAR
STARTCHAR guillemot
ENCODING 171
SWIDTH 720 0
DWIDTH 6 0
BBX 5 5 1 1
BITMAP
28
50
A0
50
28
ENDCHAR
STARTCHAR not
ENCODING 172
SWIDTH 720 0
DWIDTH 6 0
BBX 5 2 1 5
BITMAP
F8
08
ENDCHAR
STARTCHAR soft
ENCODING 173
SWIDTH 720 0
DWIDTH 6 0
BBX 5 1 1 4
BITMAP
F8
ENDCHAR
STARTCHAR registered
ENCODING 174
SWIDTH 720 0
DWIDTH 8 0
BBX 7 7 1 0
BITMAP
7C
82
BA
AA
B2
AA
7C
ENDCHAR
STARTCHAR macron
ENCODING 175
SWIDTH 720 0
DWIDTH 8 0
BBX 7 1 1 6
BITMAP
FE
ENDCHAR
STARTCHAR degree
ENCODING 176
SWIDTH 720 0
DWIDTH 5 0
BBX 4 3 1 4
BITMAP
60
90
60
ENDCHAR
STARTCHAR plus
ENCODING 177
SWIDTH 720 0
DWIDTH 6 0
BBX 5 7 1 0
BITMAP
20
20
F8
20
20
00
F8
ENDCHAR
STARTCHAR superscript
ENCODING 178
SWIDTH 720 0
DWIDTH 5 0
BBX 4 5 1 3
BITMAP
E0
10
20
40
F0
ENDCHAR
STARTCHAR superscript
ENCODING 179
SWIDTH 720 0
DWIDTH 4 0
BBX 3 5 1 3
BITMAP
C0
20
40
20
C0
ENDCHAR
STARTCHAR spacing
ENCODING 180
SWIDTH 720 0
DWIDTH 3 0
BBX 2 2 1 5
BITMAP
40
80
ENDCHAR
STARTCHAR micro
ENCODING 181
SWIDTH 720 0
DWIDTH 5 0
BBX 4 4 1 3
BITMAP
90
90
E0
80
ENDCHAR
STARTCHAR paragraph
ENCODING 182
SWIDTH 720 0
DWIDTH 7 0
BBX 6 7 1 0
BITMAP
7C
F4
F4
34
14
14
14
ENDCHAR
STARTCHAR middle
ENCODING 183
SWIDTH 720 0
DWIDTH 5 0
BBX 4 3 1 2
BITMAP
60
F0
60
ENDCHAR
STARTCHAR cedilla
ENCODING 184
SWIDTH 720 0
DWIDTH 5 0
BBX 2 2 3 0
BITMAP
80
40
ENDCHAR
STARTCHAR suprtscript
ENCODING 185
SWIDTH 720 0
DWIDTH 4 0
BBX 3 4 1 4
BITMAP
40
C0
40
E0
ENDCHAR
STARTCHAR masculine
ENCODING 186
SWIDTH 720 0
DWIDTH 5 0
BBX 4 3 1 4
BITMAP
60
90
60
ENDCHAR
STARTCHAR guillemot
ENCODING 187
SWIDTH 720 0
DWIDTH 6 0
BBX 5 5 1 1
BITMAP
A0
50
28
50
A0
ENDCHAR
STARTCHAR one
ENCODING 188
SWIDTH 720 0
DWIDTH 7 0
BBX 6 6 1 1
BITMAP
88
90
A0
54
9C
04
ENDCHAR
STARTCHAR one
ENCODING 189
SWIDTH 720 0
DWIDTH 8 0
BBX 7 7 1 0
BITMAP
88
90
A0
5C
84
18
1E
ENDCHAR
STARTCHAR three
ENCODING 190
SWIDTH 720 0
DWIDTH 7 0
BBX 6 7 1 0
BITMAP
E4
68
30
E0
54
9C
04
ENDCHAR
STARTCHAR inverted
ENCODING 191
SWIDTH 720 0
DWIDTH 5 0
BBX 4 7 1 0
BITMAP
20
00
20
40
80
90
60
ENDCHAR
STARTCHAR large
ENCODING 192
SWIDTH 720 0
DWIDTH 5 0
BBX 4 8 1 0
BITMAP
80
40
60
90
90
F0
90
90
ENDCHAR
STARTCHAR large
ENCODING 193
SWIDTH 720 0
DWIDTH 5 0
BBX 4 8 1 0
BITMAP
10
20
60
90
90
F0
90
90
ENDCHAR
STARTCHAR large
ENCODING 194
SWIDTH 720 0
DWIDTH 5 0
BBX 4 8 1 0
BITMAP
60
90
60
90
90
F0
90
90
ENDCHAR
STARTCHAR large
ENCODING 195
SWIDTH 720 0
DWIDTH 5 0
BBX 4 8 1 0
BITMAP
50
A0
60
90
90
F0
90
90
ENDCHAR
STARTCHAR large
ENCODING 196
SWIDTH 720 0
DWIDTH 5 0
BBX 4 8 1 0
BITMAP
90
00
60
90
90
F0
90
90
ENDCHAR
STARTCHAR large
ENCODING 197
SWIDTH 720 0
DWIDTH 5 0
BBX 4 8 1 0
BITMAP
60
90
60
90
90
F0
90
90
ENDCHAR
STARTCHAR large
ENCODING 198
SWIDTH 720 0
DWIDTH 8 0
BBX 7 7 1 0
BITMAP
7E
90
90
FC
90
90
9E
ENDCHAR
STARTCHAR large
ENCODING 199
SWIDTH 720 0
DWIDTH 7 0
BBX 6 7 1 0
BITMAP
78
84
80
80
84
78
20
ENDCHAR
STARTCHAR large
ENCODING 200
SWIDTH 720 0
DWIDTH 5 0
BBX 4 8 1 0
BITMAP
40
20
70
80
E0
80
80
70
ENDCHAR
STARTCHAR large
ENCODING 201
SWIDTH 720 0
DWIDTH 5 0
BBX 4 8 1 0
BITMAP
20
40
70
80
E0
80
80
70
ENDCHAR
STARTCHAR large
ENCODING 202
SWIDTH 720 0
DWIDTH 5 0
BBX 4 8 1 0
BITMAP
60
90
70
80
E0
80
80
70
ENDCHAR
STARTCHAR large
ENCODING 203
SWIDTH 720 0
DWIDTH 5 0
BBX 4 8 1 0
BITMAP
90
00
70
80
E0
80
80
70
ENDCHAR
STARTCHAR capital
ENCODING 204
SWIDTH 720 0
DWIDTH 4 0
BBX 3 8 1 0
BITMAP
80
40
E0
40
40
40
40
E0
ENDCHAR
STARTCHAR capital
ENCODING 205
SWIDTH 720 0
DWIDTH 4 0
BBX 3 8 1 0
BITMAP
20
40
E0
40
40
40
40
E0
ENDCHAR
STARTCHAR capital
ENCODING 206
SWIDTH 720 0
DWIDTH 4 0
BBX 3 8 1 0
BITMAP
40
A0
E0
40
40
40
40
E0
ENDCHAR
STARTCHAR capital
ENCODING 207
SWIDTH 720 0
DWIDTH 4 0
BBX 3 8 1 0
BITMAP
A0
00
E0
40
40
40
40
E0
ENDCHAR
STARTCHAR capital
ENCODING 208
SWIDTH 720 0
DWIDTH 6 0
BBX 5 7 1 0
BITMAP
70
48
48
E8
48
48
70
ENDCHAR
STARTCHAR capital
ENCODING 209
SWIDTH 720 0
DWIDTH 5 0
BBX 4 8 1 0
BITMAP
50
A0
E0
90
90
90
90
90
ENDCHAR
STARTCHAR capital
ENCODING 210
SWIDTH 720 0
DWIDTH 5 0
BBX 4 8 1 0
BITMAP
80
40
60
90
90
90
90
60
ENDCHAR
STARTCHAR capital
ENCODING 211
SWIDTH 720 0
DWIDTH 5 0
BBX 4 8 1 0
BITMAP
10
20
60
90
90
90
90
60
ENDCHAR
STARTCHAR capital
ENCODING 212
SWIDTH 720 0
DWIDTH 5 0
BBX 4 8 1 0
BITMAP
60
90
60
90
90
90
90
60
ENDCHAR
STARTCHAR capital
ENCODING 213
SWIDTH 720 0
DWIDTH 5 0
BBX 4 8 1 0
BITMAP
50
A0
60
90
90
90
90
60
ENDCHAR
STARTCHAR capital
ENCODING 214
SWIDTH 720 0
DWIDTH 5 0
BBX 4 8 1 0
BITMAP
90
00
60
90
90
90
90
60
ENDCHAR
STARTCHAR multiply
ENCODING 215
SWIDTH 720 0
DWIDTH 6 0
BBX 5 5 1 1
BITMAP
88
50
20
50
88
ENDCHAR
STARTCHAR capital
ENCODING 216
SWIDTH 720 0
DWIDTH 8 0
BBX 7 7 1 0
BITMAP
02
3C
4C
54
64
78
80
ENDCHAR
STARTCHAR capital
ENCODING 217
SWIDTH 720 0
DWIDTH 5 0
BBX 4 8 1 0
BITMAP
40
20
90
90
90
90
90
60
ENDCHAR
STARTCHAR capital
ENCODING 218
SWIDTH 720 0
DWIDTH 5 0
BBX 4 8 1 0
BITMAP
20
40
90
90
90
90
90
60
ENDCHAR
STARTCHAR capital
ENCODING 219
SWIDTH 720 0
DWIDTH 5 0
BBX 4 8 1 0
BITMAP
60
90
00
90
90
90
90
60
ENDCHAR
STARTCHAR capital
ENCODING 220
SWIDTH 720 0
DWIDTH 5 0
BBX 4 8 1 0
BITMAP
90
00
90
90
90
90
90
60
ENDCHAR
STARTCHAR capital
ENCODING 221
SWIDTH 720 0
DWIDTH 6 0
BBX 5 8 1 0
BITMAP
10
20
88
50
20
20
20
20
ENDCHAR
STARTCHAR capital
ENCODING 222
SWIDTH 720 0
DWIDTH 5 0
BBX 4 7 1 0
BITMAP
80
E0
90
E0
80
80
80
ENDCHAR
STARTCHAR sharp
ENCODING 223
SWIDTH 720 0
DWIDTH 6 0
BBX 4 7 1 0
BITMAP
60
90
90
A0
90
A0
80
ENDCHAR
STARTCHAR small
ENCODING 224
SWIDTH 720 0
DWIDTH 5 0
BBX 4 8 1 0
BITMAP
40
20
00
60
10
70
90
70
ENDCHAR
STARTCHAR small
ENCODING 225
SWIDTH 720 0
DWIDTH 5 0
BBX 4 8 1 0
BITMAP
20
40
00
60
10
70
90
70
ENDCHAR
STARTCHAR small
ENCODING 226
SWIDTH 720 0
DWIDTH 5 0
BBX 4 8 1 0
BITMAP
60
90
00
60
10
70
90
70
ENDCHAR
STARTCHAR small
ENCODING 227
SWIDTH 720 0
DWIDTH 5 0
BBX 4 8 1 0
BITMAP
50
A0
00
60
10
70
90
70
ENDCHAR
STARTCHAR small
ENCODING 228
SWIDTH 720 0
DWIDTH 5 0
BBX 4 7 1 0
BITMAP
90
00
60
10
70
90
70
ENDCHAR
STARTCHAR small
ENCODING 229
SWIDTH 720 0
DWIDTH 5 0
BBX 4 7 1 0
BITMAP
60
90
60
10
70
90
70
ENDCHAR
STARTCHAR small
ENCODING 230
SWIDTH 720 0
DWIDTH 8 0
BBX 7 5 1 0
BITMAP
6C
12
7E
90
7E
ENDCHAR
STARTCHAR small
ENCODING 231
SWIDTH 720 0
DWIDTH 6 0
BBX 5 5 1 0
BITMAP
78
80
80
78
20
ENDCHAR
STARTCHAR small
ENCODING 232
SWIDTH 720 0
DWIDTH 5 0
BBX 4 8 1 0
BITMAP
40
20
00
60
90
F0
80
70
ENDCHAR
STARTCHAR small
ENCODING 233
SWIDTH 720 0
DWIDTH 5 0
BBX 4 8 1 0
BITMAP
20
40
00
60
90
F0
80
70
ENDCHAR
STARTCHAR small
ENCODING 234
SWIDTH 720 0
DWIDTH 5 0
BBX 4 8 1 0
BITMAP
60
90
00
60
90
F0
80
70
ENDCHAR
STARTCHAR small
ENCODING 235
SWIDTH 720 0
DWIDTH 5 0
BBX 4 7 1 0
BITMAP
90
00
60
90
F0
80
70
ENDCHAR
STARTCHAR small
ENCODING 236
SWIDTH 720 0
DWIDTH 3 0
BBX 2 8 1 0
BITMAP
80
40
00
80
80
80
80
80
ENDCHAR
STARTCHAR small
ENCODING 237
SWIDTH 720 0
DWIDTH 3 0
BBX 2 8 1 0
BITMAP
40
80
00
80
80
80
80
80
ENDCHAR
STARTCHAR small
ENCODING 238
SWIDTH 720 0
DWIDTH 4 0
BBX 3 8 1 0
BITMAP
40
A0
00
40
40
40
40
40
ENDCHAR
STARTCHAR small
ENCODING 239
SWIDTH 720 0
DWIDTH 4 0
BBX 3 7 1 0
BITMAP
A0
00
40
40
40
40
40
ENDCHAR
STARTCHAR small
ENCODING 240
SWIDTH 720 0
DWIDTH 5 0
BBX 4 8 1 0
BITMAP
40
C0
20
60
90
90
90
60
ENDCHAR
STARTCHAR small
ENCODING 241
SWIDTH 720 0
DWIDTH 5 0
BBX 4 8 1 0
BITMAP
50
A0
00
E0
90
90
90
90
ENDCHAR
STARTCHAR small
ENCODING 242
SWIDTH 720 0
DWIDTH 5 0
BBX 4 8 1 0
BITMAP
80
40
00
60
90
90
90
60
ENDCHAR
STARTCHAR small
ENCODING 243
SWIDTH 720 0
DWIDTH 5 0
BBX 4 8 1 0
BITMAP
10
20
00
60
90
90
90
60
ENDCHAR
STARTCHAR small
ENCODING 244
SWIDTH 720 0
DWIDTH 5 0
BBX 4 8 1 0
BITMAP
60
90
00
60
90
90
90
60
ENDCHAR
STARTCHAR small
ENCODING 245
SWIDTH 720 0
DWIDTH 5 0
BBX 4 8 1 0
BITMAP
50
A0
00
60
90
90
90
60
ENDCHAR
STARTCHAR small
ENCODING 246
SWIDTH 720 0
DWIDTH 5 0
BBX 4 7 1 0
BITMAP
90
00
60
90
90
90
60
ENDCHAR
STARTCHAR division
ENCODING 247
SWIDTH 720 0
DWIDTH 6 0
BBX 5 5 1 1
BITMAP
20
00
F8
00
20
ENDCHAR
STARTCHAR small
ENCODING 248
SWIDTH 720 0
DWIDTH 7 0
BBX 6 6 1 0
BITMAP
74
88
94
A4
44
B8
ENDCHAR
STARTCHAR small
ENCODING 249
SWIDTH 720 0
DWIDTH 5 0
BBX 4 8 1 0
BITMAP
40
20
00
90
90
90
90
60
ENDCHAR
STARTCHAR small
ENCODING 250
SWIDTH 720 0
DWIDTH 5 0
BBX 4 8 1 0
BITMAP
20
40
00
90
90
90
90
60
ENDCHAR
STARTCHAR small
ENCODING 251
SWIDTH 720 0
DWIDTH 5 0
BBX 4 8 1 0
BITMAP
60
90
00
90
90
90
90
60
ENDCHAR
STARTCHAR small
ENCODING 252
SWIDTH 720 0
DWIDTH 5 0
BBX 4 7 1 0
BITMAP
90
00
90
90
90
90
70
ENDCHAR
STARTCHAR small
ENCODING 253
SWIDTH 720 0
DWIDTH 5 0
BBX 4 8 1 0
BITMAP
40
20
00
90
90
70
10
60
ENDCHAR
STARTCHAR small
ENCODING 254
SWIDTH 720 0
DWIDTH 7 0
BBX 6 7 1 0
BITMAP
80
B8
C4
84
C4
B8
80
ENDCHAR
STARTCHAR small
ENCODING 255
SWIDTH 720 0
DWIDTH 5 0
BBX 4 7 1 0
BITMAP
90
00
90
90
70
10
60
ENDCHAR
ENDFONT
